<?xml version="1.0" encoding="UTF-8"?>
<svg width="20px" height="20px" viewBox="0 0 20 20" version="1.1" xmlns="http://www.w3.org/2000/svg" xmlns:xlink="http://www.w3.org/1999/xlink">
    <title>编组 6</title>
    <g id="丰富卡片" stroke="none" stroke-width="1" fill="none" fill-rule="evenodd">
        <g id="优化" transform="translate(-592.000000, -645.000000)">
            <g id="编组-8" transform="translate(116.000000, 195.000000)">
                <g id="编组-14" transform="translate(460.000000, 320.000000)">
                    <g id="编组-6" transform="translate(16.000000, 130.000000)">
                        <rect id="矩形" x="0" y="0" width="20" height="20"></rect>
                        <path d="M10.5,3 C14.0898509,3 17,5.91014913 17,9.5 C17,13.0898509 14.0898509,16 10.5,16 C6.91014913,16 4,13.0898509 4,9.5 C4,5.91014913 6.91014913,3 10.5,3 Z M10.5,4 C7.46243388,4 5,6.46243388 5,9.5 C5,12.5375661 7.46243388,15 10.5,15 C13.5375661,15 16,12.5375661 16,9.5 C16,6.46243388 13.5375661,4 10.5,4 Z M10.4991798,6.00225384 C10.7741297,6.00225384 10.9970206,6.2251448 10.9970206,6.50009473 L10.9961907,9.29425384 L12.6223241,10.9160157 C12.7952016,11.0885017 12.8146923,11.3565312 12.680604,11.5505585 L12.622723,11.6199177 C12.428171,11.8144697 12.1127951,11.8146484 11.9180227,11.6203171 L10.1184248,9.82516551 L10.0670804,9.75158628 L10.0670804,9.75158628 L10.031937,9.67664441 L10.031937,9.67664441 L10.0266538,9.6615729 C10.012987,9.62260145 10.0046539,9.58275051 10.0011907,9.54255784 L10.0013389,6.50009473 C10.0013389,6.2251448 10.2242298,6.00225384 10.4991798,6.00225384 Z" id="形状" fill="#6D7B98" fill-rule="nonzero"></path>
                    </g>
                </g>
            </g>
        </g>
    </g>
</svg>